# xmcd
#
# Track frame offsets:
#	150
#	22720
#	39441
#	55026
#	71570
#	87402
#	107080
#	123880
#	136929
#	153113
#	165965
#	182645
#	197162
#	211982
#
# Disc length: 3035 seconds
#
# Revision: 1
# Processed by: cddbd v1.5.1PL0 Copyright (c) Steve Scherf et al.
# Submitted via: audiograbber 1.83.01
#
DISCID=aa0bd90e
DTITLE=Various Artist - Yesterday - La copla
DYEAR=1900
DGENRE=
TTITLE0=Concha Piquer - Ojos Verdes
TTITLE1=Miguel de Molina - La bien pagá
TTITLE2=Juanita Reina - Y, sin embargo, te quiero
TTITLE3=Rafael Farina - Vino amargo
TTITLE4=Juanito Valderrama - El emigrante
TTITLE5=Marifé de Triana - Torre de arena
TTITLE6=Pepe Pinto - Trigo limpio
TTITLE7=Lola Flores - La zarzamora
TTITLE8=Antonio Molina - Soy minero
TTITLE9=Carmen Morel y Pepe Blanco - Me debes un beso
TTITLE10=Manolo Caracol - La salvaora
TTITLE11=Antoñita Moreno - El cordón de mi corpiño
TTITLE12=Pepe Moreno - Cocidito madrileño
TTITLE13=Carmen Sevilla - Carmen de España
EXTD=
EXTT0=
EXTT1=
EXTT2=
EXTT3=
EXTT4=
EXTT5=
EXTT6=
EXTT7=
EXTT8=
EXTT9=
EXTT10=
EXTT11=
EXTT12=
EXTT13=
PLAYORDER=
